<svg width="16" height="16" viewBox="0 0 16 16" fill="none" xmlns="http://www.w3.org/2000/svg">
<g clip-path="url(#clip0_375_1341)">
<path d="M11.3998 0.226711C18.4131 -0.826622 13.9198 5.14671 11.7465 6.82671C13.2398 7.97338 14.7731 9.58671 15.4265 11.4134C16.6398 14.76 13.6531 15.2534 11.3998 14.4134C8.93314 13.5467 6.75981 11.6934 5.31981 9.52004C4.91981 9.52004 4.47981 9.45337 4.06647 9.33337C4.87981 11.6267 5.22647 13.9734 4.99981 15.8934C4.99981 12.0267 3.15981 8.18671 0.506474 4.98671C-0.426859 3.86671 0.53314 3.04004 1.37314 4.12004C1.94647 4.90671 2.46647 5.72004 2.93314 6.56004C3.85314 3.41338 8.33314 0.666711 11.3998 0.226711ZM10.3998 5.92004C11.7731 5.08004 15.9465 0.600043 12.0531 1.00004C9.81314 1.25338 7.09314 3.32004 5.97314 4.65337C7.53314 4.46671 9.1198 5.14671 10.3998 5.92004ZM6.53314 9.40004C7.78647 10.8 9.49314 12.16 11.3331 12.6534C12.3998 12.9334 13.5731 12.8134 13.1465 11.2934C12.7065 9.89337 11.5865 8.66671 10.4931 7.73337C10.1865 7.94671 9.8398 8.17337 9.49314 8.32004C8.5598 8.84004 7.5598 9.21337 6.53314 9.40004Z" fill="#EBA12A"/>
<path d="M5.93325 5.64013C6.99992 5.5468 8.14658 6.1068 9.02658 6.6668C8.18658 7.0668 7.25325 7.32014 6.27992 7.37347C4.85325 7.3868 4.55992 5.77347 5.93325 5.64013Z" fill="white"/>
</g>
<defs>
<clipPath id="clip0_375_1341">
<rect width="16" height="16" fill="white"/>
</clipPath>
</defs>
</svg>
