<svg width="13" height="16" viewBox="0 0 13 16" fill="none" xmlns="http://www.w3.org/2000/svg">
<path d="M3.69434 15.4573L3.95999 13.6958L3.36843 13.6813H0.543945L2.5067 0.684599C2.51875 0.602529 2.58654 0.541959 2.66614 0.542484H7.42876C9.00986 0.542484 10.1008 0.885973 10.6706 1.5643C10.9377 1.88235 11.1077 2.21483 11.1901 2.58061C11.2764 2.96448 11.2779 3.42307 11.1936 3.98262L11.1875 4.02352V4.38196L11.4547 4.54007C11.6586 4.64784 11.8419 4.79388 11.9955 4.97061C12.224 5.24252 12.3717 5.58837 12.4342 5.99819C12.4987 6.41982 12.4774 6.92142 12.3717 7.48909C12.2499 8.14225 12.0528 8.71123 11.7869 9.17665C11.5521 9.59382 11.2365 9.95487 10.8604 10.237C10.5071 10.499 10.087 10.6977 9.61247 10.8251C9.15248 10.9502 8.62796 11.0134 8.05271 11.0134H7.68211C7.41696 11.0134 7.1596 11.113 6.95747 11.2919C6.7556 11.4725 6.62177 11.7219 6.57984 11.9959L6.55196 12.1545L6.08293 15.259L6.06159 15.3731C6.05607 15.4093 6.04627 15.4271 6.03221 15.4394C6.0184 15.4512 6.00133 15.4578 5.9835 15.458H3.69509L3.69434 15.4573Z" fill="#253B80"/>
<path d="M11.6979 4.06494C11.6836 4.15986 11.6676 4.25688 11.6492 4.35651C11.0213 7.72402 8.87246 8.88717 6.12808 8.88717H4.73078C4.39507 8.88717 4.11235 9.14177 4.06012 9.48735L3.34478 14.2254L3.14215 15.5684C3.11126 15.7722 3.24434 15.9633 3.43943 15.9956C3.45776 15.9987 3.47634 16 3.49518 16H5.97341C6.26693 16 6.51626 15.7774 6.56246 15.4751L6.58681 15.3437L7.05333 12.2515L7.08321 12.0819C7.12891 11.7785 7.37874 11.5559 7.67227 11.5559H8.04287C10.444 11.5559 12.3237 10.538 12.873 7.59213C13.1025 6.3616 12.9838 5.33402 12.3764 4.61138C12.1838 4.38772 11.9541 4.20286 11.6979 4.0652V4.06494Z" fill="#179BD7"/>
<path d="M11.0476 3.79228C10.847 3.73171 10.6431 3.68452 10.4367 3.65069C10.0292 3.5854 9.6172 3.55394 9.20491 3.55682H5.47199C5.17847 3.55682 4.92864 3.77996 4.88344 4.08281L4.08926 9.33505L4.06641 9.48817C4.11763 9.14259 4.40236 8.88772 4.73706 8.88799H6.13436C8.87875 8.88799 11.0273 7.72406 11.6555 4.35734C11.6744 4.2577 11.6902 4.16068 11.7042 4.06576C11.5385 3.97504 11.3658 3.899 11.1877 3.83843C11.141 3.82217 11.0943 3.80697 11.0471 3.79228H11.0476Z" fill="#222D65"/>
<path d="M4.88148 4.0825C4.92617 3.77939 5.17625 3.55599 5.47003 3.55704H9.20294C9.64511 3.55704 10.0579 3.5872 10.4348 3.65091C10.6896 3.69287 10.9412 3.75527 11.1868 3.83813C11.3721 3.90237 11.5443 3.97815 11.7033 4.06546C11.8901 2.82103 11.7018 1.97385 11.0575 1.20663C10.3466 0.36207 9.06459 0.000488281 7.42424 0.000488281H2.66161C2.32641 0.000488281 2.04067 0.25509 1.98895 0.601201L0.00510777 13.7319C-0.0302956 13.965 0.122114 14.184 0.345331 14.2209C0.366423 14.2244 0.387514 14.2262 0.408856 14.2262H3.34909L4.08729 9.335L4.88148 4.08277V4.0825Z" fill="#253B80"/>
</svg>
