<svg width="16" height="16" viewBox="0 0 16 16" fill="none" xmlns="http://www.w3.org/2000/svg">
<path d="M7.40368 12.3947C5.92701 12.3947 4.01901 11.786 2.52101 10.9733V14.9873C4.17901 15.7 5.86168 16 7.40101 16C11.1103 16 13.6663 14.4067 13.6663 11.2013C13.6663 5.88333 6.84701 6.83667 6.84701 4.83L6.84634 4.82933C6.84634 4.13267 7.42834 3.86467 8.36034 3.86467C9.71768 3.86467 11.4417 4.28 12.7997 5.01133V0.815333C11.3197 0.224667 9.84368 0 8.36368 0C4.74501 0 2.33301 1.88667 2.33301 5.04267C2.33301 9.976 9.11434 9.17667 9.11434 11.304C9.11501 12.1293 8.39901 12.3947 7.40368 12.3947Z" fill="#646FDE"/>
<path d="M2.52101 10.9735V14.9875C4.17901 15.7002 5.86168 16.0002 7.40101 16.0002C7.60434 16.0002 7.80368 15.9955 7.99968 15.9862V12.3555C7.81634 12.3828 7.61634 12.3948 7.40368 12.3948C5.92701 12.3948 4.01901 11.7862 2.52101 10.9735ZM7.99968 0.00683594C4.58367 0.129503 2.33301 1.99417 2.33301 5.04284C2.33301 8.7075 6.07501 9.20884 7.99968 10.0962V5.96084C7.31234 5.67617 6.84701 5.35417 6.84701 4.8295C6.84701 4.22817 7.28034 3.94617 7.99968 3.88017V0.00683594Z" fill="#5761C1"/>
</svg>
