<svg width="35" height="40" viewBox="0 0 35 40" fill="none" xmlns="http://www.w3.org/2000/svg">
<g clip-path="url(#clip0_4063_42742)">
<path d="M15.0688 39.4148C15.0688 39.4148 22.2842 36.8309 22.1941 33.0968C21.9697 23.7883 20.8132 7.33226 15.4732 5.93835C7.99097 3.98523 4.80208 12.3577 2.46875 39.4148H15.0688Z" fill="#E9EDF1"/>
<path d="M24.1293 4.5703C24.1293 4.5703 22.1425 0.585938 18.8723 0.585938C15.602 0.585938 14.2114 2.77343 14.2114 2.77343C8.54446 2.55453 2.46823 5.93749 0.601562 30.1721C0.601562 30.1721 2.85712 31.6406 6.35712 30.7031C9.85712 29.7656 12.6571 31.0159 12.6571 31.0159C14.5082 31.7468 24.1293 31.8239 24.1293 31.8239V4.5703Z" fill="#E9EDF1"/>
<path d="M15.4723 5.93833C8.83199 4.20497 5.57326 10.6052 3.29297 30.9807C4.14899 31.0616 5.18242 31.0185 6.35687 30.7039C9.85687 29.7664 12.6569 31.0167 12.6569 31.0167C13.9759 31.5376 18.0218 32.9747 22.1569 31.7919C21.8556 22.3305 20.5709 7.26926 15.4723 5.93833Z" fill="#C8D2DC"/>
<path d="M20.6959 18.1872C19.1188 19.7713 17.5168 20.7543 15.2191 20.7543C12.3653 20.7543 9.74219 18.0764 9.74219 14.37C9.74219 10.6635 12.3653 7.38223 15.817 8.79692C19.2687 10.2116 23.0222 15.8506 20.6959 18.1872Z" fill="#7B3F2C"/>
<path d="M25.6568 29.5896C25.3246 28.8132 25.3331 27.7207 25.3331 25.7004C25.3331 25.5859 25.3331 21.3236 25.3331 17.8089C25.3331 14.2942 17.6689 19.0768 18.0497 20.1497C18.2016 20.5772 18.2927 21.0159 18.2927 21.4836C18.2927 27.5502 15.0664 31.7598 15.0664 39.4132H17.5397C17.5397 32.721 24.2831 29.5896 25.6568 29.5896Z" fill="#EBAE9D"/>
<path d="M31.2704 34.1006C29.9947 33.2254 28.3034 32.2474 26.3085 30.4679C26.0099 30.2014 25.8029 29.9251 25.6595 29.5899C25.6595 29.5898 25.6594 29.5898 25.6594 29.5897C24.2854 29.5894 21.1926 28.4647 20.1563 26.3086C18.9616 31.2586 17.543 32.7211 17.543 39.4133H24.7141C24.7141 39.4132 32.935 35.2426 31.2704 34.1006Z" fill="#FFCDBE"/>
<path d="M33.8899 38.5547C33.8899 36.2106 32.9329 35.2436 31.2684 34.1016C29.5141 34.1016 25.7605 36.0073 24.7122 36.7578L24.6719 36.6807C24.7216 37.5496 24.7122 38.4755 24.7122 39.4141H33.8899C33.8899 39.4141 33.8899 38.9453 33.8899 38.5547Z" fill="#E9EDF1"/>
<path d="M22.8145 16.0605C22.8145 12.7559 19.2706 10.2116 15.819 8.79688C15.3193 9.78445 15.0312 10.9641 15.0312 12.3562C15.0312 16.1617 17.2962 18.0183 18.0531 20.15C19.0096 19.7051 19.8574 19.0315 20.698 18.1872C20.6979 18.1872 22.8145 16.4589 22.8145 16.0605Z" fill="#934C35"/>
<path d="M22.8081 17.0607C22.8081 14.7424 31.0441 10.6026 33.1394 11.66C32.7743 6.46672 27.9833 4.57031 24.1303 4.57031C20.8281 4.57031 17.3604 5.78617 15.833 8.76718C15.3239 9.76085 15.883 12.208 16.8332 13.2406C19.9374 16.614 22.8081 17.0607 22.8081 17.0607Z" fill="#BE694E"/>
<path d="M33.1411 11.659C33.2034 12.5458 33.1366 13.5287 32.914 14.6149C32.8239 15.0547 32.7444 15.4483 32.6746 15.8001C32.5496 16.4299 32.7578 16.8822 32.914 17.2362C33.162 17.7979 34.3976 18.4469 34.3976 19.4132C34.3976 20.0399 33.6587 20.7413 32.7254 20.7413C31.8002 24.8577 30.2365 26.4655 28.4476 26.4655C27.2536 26.4655 26.1188 25.8839 25.3365 25.3583C24.692 24.9254 24.2865 24.5304 24.2865 24.5304C23.2178 23.6085 22.8143 21.9728 22.8143 18.6844H22.298C20.7369 18.6844 19.6719 17.5463 19.6719 16.0602C19.6719 15.1506 20.3753 14.4132 21.2431 14.4132C22.1108 14.4132 22.8143 15.1506 22.8143 16.0602C22.8143 16.3147 22.8087 17.0598 22.8087 17.0598C22.8087 14.7415 23.7123 12.7198 24.971 11.6615C26.2298 10.6031 27.7424 9.56953 27.7424 7.65234C29.3409 9.68515 31.0459 10.6016 33.1411 11.659Z" fill="#FFCDBE"/>
<path d="M26.3441 22.1875C27.2676 22.1875 28.0163 21.4355 28.0163 20.5078C28.0163 19.5801 27.2676 18.8281 26.3441 18.8281C25.4206 18.8281 24.6719 19.5801 24.6719 20.5078C24.6719 21.4355 25.4206 22.1875 26.3441 22.1875Z" fill="#E6989E"/>
<path d="M2.47026 39.9999C2.45339 39.9999 2.43635 39.9992 2.41924 39.9977C2.09833 39.9698 1.86064 39.6858 1.88841 39.3634C2.13457 36.5088 2.38782 33.8914 2.65117 31.4888C1.2021 31.2471 0.344908 30.7023 0.285563 30.6637C0.106208 30.5469 0.00478566 30.3409 0.0212745 30.1268C0.313797 26.3282 0.724075 22.8874 1.2406 19.8997C1.29574 19.5808 1.59799 19.3673 1.91516 19.4226C2.23257 19.478 2.44522 19.7814 2.39007 20.1002C1.89704 22.9521 1.50162 26.2268 1.21407 29.8385C1.51974 29.9852 2.05431 30.1985 2.7813 30.3256C3.45011 24.4768 4.18534 19.9576 5.03374 16.4278C6.34803 10.9593 7.97755 7.69038 10.1618 6.14038C11.6833 5.06062 13.4691 4.80874 15.6206 5.37046C15.9324 5.45186 16.1196 5.77171 16.0385 6.08491C15.9575 6.39803 15.6391 6.58624 15.3272 6.50468C13.5032 6.02858 12.0759 6.21694 10.835 7.09756C7.66978 9.34373 5.57328 16.292 3.94649 30.4323C4.60892 30.4395 5.36865 30.3619 6.20818 30.1371C9.86537 29.1574 12.7734 30.4261 12.8954 30.4806C13.1898 30.6121 13.3224 30.9583 13.1915 31.254C13.0606 31.5496 12.716 31.6828 12.4215 31.5514C12.3964 31.5403 9.75236 30.4006 6.5088 31.2693C5.51052 31.5367 4.6055 31.6212 3.81504 31.6001C3.54865 34.017 3.29486 36.6348 3.0508 39.4647C3.02443 39.7698 2.76963 39.9999 2.47026 39.9999ZM33.8918 39.9999C33.5696 39.9999 33.3084 39.7376 33.3084 39.414V38.5546C33.3084 36.5602 32.5704 35.7227 31.0989 34.6941C29.5831 34.8056 26.5017 36.2938 25.2755 37.0843C25.2997 37.7201 25.2987 38.3702 25.2977 39.0158L25.2973 39.4141C25.2973 39.7377 25.0362 40 24.714 40C24.3918 40 24.1307 39.7377 24.1307 39.4141L24.1311 39.0141C24.1356 36.0198 24.1394 33.4338 21.9996 32.5326C21.7024 32.4074 21.5626 32.0641 21.6872 31.7656C21.8119 31.4673 22.1536 31.3267 22.4508 31.4519C24.3056 32.2331 24.954 33.8706 25.1794 35.7792C26.312 35.1295 28.1715 34.2213 29.726 33.7788C29.0857 33.3567 28.3762 32.8791 27.6027 32.2913C27.3457 32.0961 27.295 31.7287 27.4893 31.4706C27.6836 31.2124 28.0494 31.1614 28.3065 31.3567C29.1806 32.0209 29.981 32.5465 30.6873 33.0103C31.0052 33.2191 31.3082 33.418 31.5941 33.6141C31.5974 33.6163 31.6007 33.6186 31.604 33.6209C33.3635 34.8285 34.4753 35.9288 34.4753 38.5548V39.4141C34.4751 39.7376 34.2139 39.9999 33.8918 39.9999ZM15.0696 39.9999C14.7474 39.9999 14.4862 39.7376 14.4862 39.414C14.4862 35.2809 15.3896 32.1942 16.2633 29.209C17.0086 26.6625 17.7125 24.2573 17.7125 21.4843C17.7125 21.3008 17.6953 21.1209 17.6633 20.943C16.8951 21.2139 16.093 21.3408 15.2205 21.3408C11.879 21.3408 9.16032 18.214 9.16032 14.3706C9.16032 11.9331 10.1855 9.72693 11.8358 8.61295C12.9357 7.87061 14.2377 7.6878 15.5491 8.08139C16.059 7.22936 16.7417 6.48952 17.5893 5.87835C19.0536 4.82249 20.988 4.17687 23.1164 4.02124C22.3839 2.94234 20.8763 1.17187 18.8736 1.17187C15.9869 1.17187 14.7537 3.01312 14.7027 3.09148C14.5905 3.26367 14.3948 3.36695 14.1904 3.3589C11.6469 3.25992 9.69146 3.98781 8.03277 5.64733C5.80568 7.87553 4.12778 11.7325 2.90325 17.4387C2.83543 17.755 2.52541 17.9561 2.2101 17.888C1.89517 17.8198 1.6949 17.5081 1.7628 17.1918C3.03625 11.2576 4.81791 7.20975 7.20942 4.8171C9.04575 2.97984 11.1874 2.13718 13.9279 2.17953C14.4561 1.53336 16.0115 0 18.8736 0C21.9243 0 23.9004 2.98523 24.4786 3.98898C27.6334 4.07304 30.4572 5.29733 32.0825 7.30014C33.6326 9.21037 34.1046 11.7115 33.4852 14.7339C33.4202 15.0508 33.1115 15.2548 32.7962 15.1897C32.4939 15.1272 32.2948 14.84 32.3357 14.5374C31.5019 14.4202 30.1551 14.4747 29.5216 14.8125C29.2372 14.9643 28.884 14.8556 28.7328 14.5698C28.5817 14.284 28.6898 13.9293 28.9744 13.7775C29.8777 13.2957 31.4781 13.233 32.5193 13.382C32.5706 12.9143 32.5897 12.4639 32.5766 12.0308C30.8402 11.1458 29.4216 10.3315 28.1057 8.96272C27.6673 10.1995 26.6465 11.0391 25.7196 11.8015C25.5935 11.9052 25.4681 12.0083 25.3452 12.1115C24.1403 13.1247 23.3918 15.021 23.3918 17.0606V18.6622C23.3918 19.3106 23.7013 19.5442 24.1699 19.8977C24.6949 20.2939 25.414 20.8364 25.414 22.0702C25.414 23.059 24.9521 23.6039 24.4984 23.9852C24.5689 24.0128 24.6351 24.0546 24.6927 24.1108C24.7104 24.128 26.5383 25.8803 28.4473 25.8803C29.6216 25.8803 30.4776 24.9733 31.0981 23.7518C30.4663 23.5794 29.8888 23.2162 29.421 22.6879C29.2069 22.4461 29.2285 22.0758 29.4693 21.8607C29.71 21.6457 30.0787 21.6674 30.2928 21.9092C30.647 22.3093 31.09 22.5673 31.5681 22.6581C31.8129 21.9886 32.0056 21.2829 32.1561 20.6131C32.2161 20.346 32.4524 20.1562 32.7251 20.1562C33.39 20.1562 33.814 19.6689 33.814 19.414C33.814 19.0485 33.4166 18.661 33.0661 18.3191C32.7837 18.0436 32.5168 17.7836 32.3805 17.4745C32.2499 17.1786 32.3828 16.8325 32.6774 16.7014C32.972 16.5702 33.3165 16.7038 33.447 16.9996C33.4918 17.1009 33.7064 17.3102 33.8787 17.4782C34.3438 17.9318 34.9807 18.5528 34.9807 19.4139C34.9807 20.2971 34.1901 21.0862 33.1978 21.2818C32.9991 22.0924 32.7694 22.8209 32.5101 23.4639C32.5015 23.49 32.4912 23.5151 32.4793 23.5393C32.1534 24.332 31.7813 24.9921 31.3656 25.5139C30.5523 26.5346 29.5705 27.0522 28.4473 27.0522C27.5287 27.0522 26.6536 26.7538 25.9197 26.3817C25.9225 28.3048 25.9597 29.1577 26.4265 29.7486C26.6268 30.0021 26.5846 30.3706 26.3322 30.5718C26.0797 30.773 25.7128 30.7305 25.5126 30.4771C24.7524 29.5147 24.7526 28.368 24.7528 25.8555V25.701C24.7528 25.6899 24.7531 25.6789 24.7537 25.6679C24.2357 25.2949 23.9131 24.984 23.8798 24.9514C23.7863 24.8603 23.7298 24.7454 23.7104 24.6256C23.5098 24.8356 23.3917 25.0778 23.3917 25.4782C23.3917 25.8017 23.1305 26.0641 22.8084 26.0641C22.4862 26.0641 22.225 25.8017 22.225 25.4782C22.225 24.2444 22.9441 23.7018 23.4692 23.3057C23.9377 22.9521 24.2473 22.7185 24.2473 22.0702C24.2473 21.4218 23.9377 21.1882 23.4692 20.8347C23.0398 20.5107 22.4807 20.0889 22.2911 19.2711C21.7329 19.2702 21.2209 19.1475 20.7777 18.926C20.097 19.5697 19.4311 20.0735 18.7519 20.4506C18.833 20.7812 18.8791 21.1239 18.8791 21.4843C18.8791 24.426 18.1521 26.9099 17.3825 29.5396C16.5322 32.4451 15.6528 35.4496 15.6528 39.414C15.6529 39.7376 15.3917 39.9999 15.0696 39.9999ZM14.2091 9.04928C13.5969 9.04928 13.0154 9.22858 12.4866 9.58553C11.1747 10.4711 10.327 12.3493 10.327 14.3706C10.327 17.5679 12.5222 20.1689 15.2205 20.1689C15.9629 20.1689 16.639 20.0633 17.2881 19.8336C17.0652 19.3633 16.7741 18.8875 16.4633 18.3797C15.5651 16.912 14.4473 15.0854 14.4473 12.357C14.4473 11.1897 14.6422 10.1151 15.023 9.15123C14.7472 9.08319 14.4753 9.04928 14.2091 9.04928ZM16.292 9.13998C15.8607 10.0342 15.6141 11.0996 15.6141 12.3569C15.6141 14.754 16.5933 16.3542 17.4573 17.766C17.7796 18.2928 18.0941 18.8067 18.3451 19.3362C18.8414 19.0432 19.3343 18.6672 19.8431 18.199C19.366 17.6436 19.0883 16.9048 19.0883 16.0611C19.0883 14.8298 20.0549 13.8281 21.2429 13.8281C21.7711 13.8281 22.2556 14.0261 22.6308 14.3544C23.0319 13.067 23.7132 11.9556 24.5964 11.213C24.7225 11.107 24.851 11.0012 24.9805 10.8948C26.1007 9.9735 27.1589 9.10319 27.1589 7.65319C27.1589 7.40366 27.3161 7.18155 27.5509 7.09967C27.7856 7.0178 28.0461 7.09421 28.2 7.29006C29.4452 8.87366 30.7327 9.73584 32.4079 10.6246C32.1947 9.65115 31.7845 8.7878 31.1782 8.04069C29.7146 6.23702 27.0853 5.15929 24.143 5.15624C24.135 5.1564 24.1271 5.1564 24.1192 5.15624C21.0407 5.15882 17.8069 6.21952 16.3741 8.97592C16.3695 8.99037 16.3643 9.00467 16.3586 9.01889C16.3408 9.06272 16.3183 9.10319 16.292 9.13998ZM21.0503 17.7211C21.3692 17.9507 21.7699 18.0854 22.2251 18.0982V15.9479C22.1724 15.4158 21.752 15 21.2428 15C20.6981 15 20.2549 15.476 20.2549 16.0611C20.2549 16.7668 20.5454 17.3472 21.0293 17.7058C21.0364 17.7107 21.0434 17.7158 21.0503 17.7211ZM30.6855 18.3956C30.3674 18.3956 28.959 18.2717 28.3889 17.6989C28.1611 17.4701 28.1611 17.0991 28.3889 16.8704C28.6167 16.6415 28.9861 16.6415 29.2138 16.8704C29.3714 17.0255 30.1966 17.2237 30.6854 17.2237C31.0075 17.2237 31.2687 17.4861 31.2687 17.8097C31.2687 18.1332 31.0076 18.3956 30.6855 18.3956Z" fill="black"/>
</g>
<defs>
<clipPath id="clip0_4063_42742">
<rect width="35" height="40" fill="white"/>
</clipPath>
</defs>
</svg>
