<svg width="18" height="18" viewBox="0 0 18 18" fill="none" xmlns="http://www.w3.org/2000/svg">
<path d="M17.7209 3.89944C17.6345 3.84552 17.5358 3.81448 17.4341 3.80923C17.3324 3.80398 17.2311 3.8247 17.1396 3.86944C13.9193 5.4447 11.6194 4.70658 9.18827 3.92795C6.6311 3.11406 3.99066 2.27017 0.336806 4.05397C0.235896 4.10324 0.150836 4.17983 0.0912954 4.27504C0.0317552 4.37025 0.000124594 4.48026 5.95297e-09 4.59256V13.5888C-1.43338e-05 13.6906 0.0258781 13.7908 0.0752405 13.8798C0.124603 13.9689 0.195812 14.0439 0.282167 14.0978C0.368521 14.1518 0.467181 14.1829 0.568861 14.1882C0.670541 14.1935 0.771898 14.1728 0.863393 14.1281C4.08367 12.5529 6.38356 13.291 8.81846 14.0696C10.2617 14.5309 11.7319 15.0013 13.3942 15.0013C14.6762 15.0013 16.0744 14.7222 17.6632 13.9466C17.7641 13.8973 17.8491 13.8207 17.9087 13.7255C17.9682 13.6303 17.9999 13.5203 18 13.408V4.41178C18.0009 4.30969 17.9757 4.20907 17.9269 4.11942C17.8781 4.02977 17.8072 3.95405 17.7209 3.89944ZM3.0005 10.8006C3.0005 10.9597 2.93727 11.1124 2.82473 11.2249C2.71219 11.3375 2.55955 11.4007 2.4004 11.4007C2.24124 11.4007 2.0886 11.3375 1.97606 11.2249C1.86352 11.1124 1.8003 10.9597 1.8003 10.8006V5.99979C1.8003 5.84063 1.86352 5.688 1.97606 5.57545C2.0886 5.46291 2.24124 5.39969 2.4004 5.39969C2.55955 5.39969 2.71219 5.46291 2.82473 5.57545C2.93727 5.688 3.0005 5.84063 3.0005 5.99979V10.8006ZM9.00149 11.4007C8.52673 11.4007 8.06264 11.2599 7.6679 10.9961C7.27316 10.7324 6.96549 10.3575 6.78381 9.91888C6.60213 9.48026 6.55459 8.99762 6.64721 8.53199C6.73983 8.06636 6.96845 7.63865 7.30415 7.30295C7.63985 6.96725 8.06756 6.73863 8.53319 6.64601C8.99883 6.55339 9.48146 6.60093 9.92008 6.78261C10.3587 6.96429 10.7336 7.27195 10.9973 7.6667C11.2611 8.06144 11.4019 8.52553 11.4019 9.00028C11.4019 9.63691 11.149 10.2475 10.6988 10.6976C10.2487 11.1478 9.63811 11.4007 9.00149 11.4007ZM16.2027 12.0008C16.2027 12.1599 16.1395 12.3126 16.0269 12.4251C15.9144 12.5377 15.7617 12.6009 15.6026 12.6009C15.4434 12.6009 15.2908 12.5377 15.1782 12.4251C15.0657 12.3126 15.0025 12.1599 15.0025 12.0008V7.19999C15.0025 7.04083 15.0657 6.88819 15.1782 6.77565C15.2908 6.66311 15.4434 6.59989 15.6026 6.59989C15.7617 6.59989 15.9144 6.66311 16.0269 6.77565C16.1395 6.88819 16.2027 7.04083 16.2027 7.19999V12.0008Z" fill="#09954D"/>
</svg>
