<svg width="12" height="13" viewBox="0 0 12 13" fill="none" xmlns="http://www.w3.org/2000/svg">
<path d="M11.8075 4.41084H0.195312L2.04859 1.80859H9.9542L11.8075 4.41084Z" fill="#FFDB6C"/>
<path d="M0.195312 4.41211H11.8075L6.00139 11.1899L0.195312 4.41211Z" fill="#FFB04C"/>
<path d="M9.95312 1.80859V4.41084H11.8064L9.95312 1.80859Z" fill="#FFC866"/>
<path d="M9.95281 4.41211L6 11.1899L11.8061 4.41211H9.95281Z" fill="#F7A05E"/>
<path d="M2.04688 1.80859H9.95249L5.99968 11.1886L2.04688 1.80859Z" fill="#FFDB6C"/>
<path d="M8.85587 4.41084L9.95249 1.80859H2.04688L3.14349 4.41084H8.85587Z" fill="#FFF2BB"/>
<path d="M3.14453 4.41084L6.00072 1.80859L8.85691 4.41084H3.14453Z" fill="#FFEB8A"/>
<path d="M11.991 4.47291C12.0093 4.41551 11.9993 4.35033 11.9644 4.30119L10.1111 1.6989C10.0748 1.6479 10.0138 1.61668 9.95114 1.61719H2.04822C1.98565 1.61673 1.92476 1.64799 1.88847 1.6989L0.0352247 4.30119C-0.015541 4.37248 -0.0109706 4.47404 0.0459356 4.54062L5.85201 11.3184C5.88897 11.3616 5.94297 11.3864 5.99979 11.3864C6.0566 11.3864 6.1106 11.3616 6.14756 11.3184L11.9536 4.54062C11.9707 4.5207 11.9834 4.49696 11.9913 4.472C11.9903 4.47514 11.9923 4.46893 11.9907 4.47373C11.992 4.4697 11.9901 4.4758 11.991 4.47291ZM6.07434 2.07505L8.36365 4.21948H3.65627L6.07434 2.07505ZM3.2175 4.08842L2.34012 2.00635H5.56528L3.2175 4.08842ZM6.5703 2.00635H9.6595L8.78519 4.08113L6.5703 2.00635ZM9.99644 2.20878L11.4284 4.21951H9.14915L9.99644 2.20878ZM2.00313 2.20876L2.85044 4.21948H0.57117L2.00313 2.20876ZM5.99979 10.8927L0.616592 4.60862H3.14161C3.14231 4.60862 3.14299 4.60878 3.14369 4.60878C3.14472 4.60878 3.14578 4.60864 3.14679 4.60862H8.8549C8.85522 4.60862 8.8556 4.60866 8.85593 4.60866C8.85616 4.60866 8.8564 4.60862 8.85663 4.60862H11.383L5.99979 10.8927Z" fill="black"/>
<path d="M3.67859 5.18158C3.63685 5.08256 3.52264 5.03608 3.42376 5.07782C3.32474 5.11954 3.27828 5.23366 3.32 5.33266L5.04364 9.42285C5.07498 9.4972 5.14709 9.54194 5.22301 9.54194C5.24823 9.54194 5.27382 9.53704 5.29848 9.52661C5.3975 9.48489 5.44395 9.37078 5.40224 9.27178L3.67859 5.18158Z" fill="black"/>
<path d="M8.57946 5.07783C8.48048 5.03608 8.36634 5.08254 8.32462 5.18158L6.6325 9.19697C6.59079 9.29597 6.63722 9.41009 6.73626 9.4518C6.76094 9.46221 6.78654 9.46713 6.81173 9.46713C6.88764 9.46713 6.95979 9.42241 6.9911 9.34805L8.68321 5.33266C8.72491 5.23369 8.67848 5.11955 8.57946 5.07783Z" fill="black"/>
</svg>
