<svg width="40" height="40" viewBox="0 0 40 40" fill="none" xmlns="http://www.w3.org/2000/svg">
<g clip-path="url(#clip0_5193_38993)">
<mask id="mask0_5193_38993" style="mask-type:luminance" maskUnits="userSpaceOnUse" x="0" y="0" width="40" height="40">
<path d="M0 -7.62939e-06H40V39.9805H0V-7.62939e-06Z" fill="white"/>
</mask>
<g mask="url(#mask0_5193_38993)">
<path d="M31.7229 7.59017C38.7074 10.4692 36.6453 16.7903 35.5929 19.1168C35.4379 19.4594 34.9452 19.4405 34.8166 19.0871L30.7578 7.94124L31.7229 7.59017Z" fill="#E5D5F5"/>
<path d="M36.5258 25.5292C33.1949 29.6611 28.3 33.5887 22.6667 32.2179C20.3988 31.6657 18.4689 30.1217 17.5061 28.0734C17.1209 27.2556 16.8897 26.3571 16.8535 25.409C16.7576 22.901 17.9005 20.4853 17.4111 17.9638C16.9283 15.4802 15.1944 13.3613 12.6751 12.7939C12.0528 12.6536 11.4137 12.6099 10.7813 12.6578C9.10873 13.073 7.60186 14.0917 6.6642 16.1938C6.03858 17.5949 5.66608 19.4793 5.66608 21.9873C5.66608 22.6354 5.74342 23.2565 5.88467 23.8474C4.48631 23.2203 3.29381 22.0983 2.52022 20.7619C1.42202 18.8649 1.10412 16.5871 1.31522 14.406C1.55233 11.9526 2.48069 9.50086 4.25077 7.78459C6.33709 5.7598 9.39881 4.95878 12.3 5.14627C15.202 5.33282 17.9761 6.41456 20.5678 7.73243C23.1595 9.05124 25.6217 10.617 28.2412 11.877C31.0666 13.2369 35.013 14.4103 37.8174 12.4477C38.1033 12.2468 38.5011 12.4165 38.5608 12.7611C39.236 16.6703 38.015 20.9291 35.3494 23.8634C35.092 24.1457 35.2476 24.5996 35.6251 24.6602C35.8244 24.6913 36.0246 24.7257 36.2239 24.7568C36.5889 24.8132 36.7579 25.2418 36.5258 25.5292Z" fill="#6A61B2"/>
<path d="M36.2255 24.7569C36.0262 24.7258 35.826 24.6913 35.6267 24.6602C35.2492 24.5997 35.0936 24.1458 35.3509 23.8634C38.0166 20.9292 39.2377 16.6705 38.5623 12.7613C38.5027 12.4167 38.1049 12.2468 37.819 12.4478C37.3276 12.7916 36.8011 13.039 36.2517 13.2061C36.8484 17.0571 35.6251 21.2161 33.0072 24.0977C32.7498 24.3801 32.9055 24.834 33.283 24.8945C33.4823 24.9256 33.6824 24.9601 33.8817 24.9912C34.2466 25.0475 34.4157 25.4761 34.1836 25.7636C31.7616 28.7681 28.5124 31.6638 24.7539 32.4937C29.5063 32.5991 33.6148 29.1423 36.5273 25.5293C36.7595 25.2418 36.5905 24.8132 36.2255 24.7569Z" fill="#5F55AD"/>
<path d="M16.1228 33.0223V27.7911H9.65445V33.0223C9.65445 33.3031 9.47078 33.5504 9.20203 33.6317C6.71883 34.3834 2.65625 35.1165 2.65625 38.5251V38.892C2.65625 39.1696 2.88133 39.3945 3.15898 39.3945H22.6183C22.8959 39.3945 23.121 39.1696 23.121 38.892V38.5251C23.121 35.1165 19.0584 34.3834 16.5752 33.6317C16.3065 33.5504 16.1228 33.3031 16.1228 33.0223Z" fill="#FFCDBE"/>
<path d="M16.5774 33.6316C16.3087 33.5503 16.125 33.303 16.125 33.0223V27.7911H14.0156V33.4908C14.0156 33.7715 14.1993 34.0188 14.468 34.1002C16.9512 34.8518 21.0138 35.1165 21.0138 38.5251V38.892C21.0138 39.1695 20.7888 39.3945 20.5111 39.3945H22.6205C22.8981 39.3945 23.1232 39.1695 23.1232 38.892V38.5251C23.1232 35.1165 19.0605 34.3833 16.5774 33.6316Z" fill="#EBAE9D"/>
<path d="M6.16695 19.2033C4.19789 19.2033 2.60156 20.4808 2.60156 22.0567C2.60156 23.6327 4.19789 24.9102 6.16695 24.9102C8.13609 24.9102 9.73234 23.6327 9.73234 22.0567C9.73234 20.4808 8.13609 19.2033 6.16695 19.2033Z" fill="#EBAE9D"/>
<path d="M16.8555 25.4062C16.8916 26.3542 17.1229 27.2527 17.508 28.0706C15.9834 29.6356 14.1225 30.5391 12.8914 30.5391C10.79 30.5391 6.85281 27.9066 5.88664 23.8445C5.74539 23.2536 5.66797 22.6325 5.66797 21.9845C5.66797 19.4764 6.04055 17.592 6.66617 16.1909C7.60383 14.0888 9.1107 13.0702 10.7833 12.655C11.4156 12.607 12.0547 12.6508 12.677 12.7911C15.1963 13.3585 16.9303 15.4774 17.413 17.961C17.9024 20.4825 16.7596 22.8981 16.8555 25.4062Z" fill="#FFCDBE"/>
<path d="M11.177 29.9491C11.0363 29.9491 10.8868 29.9362 10.7305 29.911C11.5263 30.3199 12.2848 30.5391 12.8907 30.5391C14.1217 30.5391 15.9827 29.6355 17.5073 28.0705C17.1766 27.3683 16.9598 26.6065 16.882 25.805C15.35 28.383 12.7362 29.9491 11.177 29.9491Z" fill="#EBAE9D"/>
<path d="M30.2116 7.59017C23.2271 10.4692 25.2892 16.7903 26.3416 19.1168C26.4966 19.4594 26.9893 19.4405 27.118 19.0871L31.1767 7.94124L30.2116 7.59017Z" fill="#F2EAFA"/>
<path d="M30.9657 6.05852C30.0376 6.05852 29.2852 6.81057 29.2852 7.73824C29.2852 8.66599 30.0376 9.41797 30.9657 9.41797C31.8938 9.41797 32.6462 8.66599 32.6462 7.73824C32.6462 6.81057 31.8938 6.05852 30.9657 6.05852Z" fill="#92E0C4"/>
<path d="M32.7328 13.3633L31.2852 9.3871" stroke="black" stroke-width="1.5" stroke-miterlimit="10" stroke-linecap="round" stroke-linejoin="round"/>
<path d="M36.607 13.082C36.2938 11.2095 35.2125 9.33542 32.625 8.00404" stroke="black" stroke-width="1.5" stroke-miterlimit="10" stroke-linecap="round" stroke-linejoin="round"/>
<path d="M30.1477 6.26953L28.5938 2.00365" stroke="black" stroke-width="1.5" stroke-miterlimit="10" stroke-linecap="round" stroke-linejoin="round"/>
<path d="M27.8049 4.73804C26.9324 5.05546 25.9675 4.60584 25.6499 3.73369L25.3245 2.84006C25.007 1.96791 25.4568 1.00353 26.3294 0.686111C27.202 0.368688 28.1667 0.81839 28.4843 1.69054L28.8097 2.58417C29.1274 3.45624 28.6774 4.42062 27.8049 4.73804Z" stroke="black" stroke-width="1.5" stroke-miterlimit="10" stroke-linecap="round" stroke-linejoin="round"/>
<path d="M2.7753 21.1719C2.68545 21.0376 2.6003 20.9001 2.51983 20.7611C1.42217 18.8636 1.1042 16.5858 1.31514 14.4049C1.55186 11.9514 2.48077 9.49945 4.25108 7.7831C4.68155 7.36534 5.15499 6.99911 5.65889 6.68286" stroke="black" stroke-width="1.5" stroke-miterlimit="10" stroke-linecap="round" stroke-linejoin="round"/>
<path d="M8.15625 5.57911C9.49141 5.1918 10.9141 5.05593 12.3 5.14573C15.2023 5.33236 17.9766 6.41386 20.568 7.73197C22.4633 8.69634 24.2891 9.79268 26.1578 10.8047" stroke="black" stroke-width="1.5" stroke-miterlimit="10" stroke-linecap="round" stroke-linejoin="round"/>
<path d="M21.9469 35.8822C22.657 36.5272 23.1211 37.3736 23.1211 38.5254V38.8917C23.1211 39.1696 22.8961 39.3945 22.618 39.3945H3.15859C2.88125 39.3945 2.65625 39.1696 2.65625 38.8917V38.5254C2.65625 35.1162 6.71875 34.3837 9.20156 33.6317C9.47109 33.5505 9.65469 33.303 9.65469 33.0226V29.2573" stroke="black" stroke-width="1.5" stroke-miterlimit="10" stroke-linecap="round" stroke-linejoin="round"/>
<path d="M16.125 29.2573V33.0234C16.125 33.3037 16.3086 33.5513 16.5773 33.6325C17.4625 33.9003 18.5477 34.1658 19.5781 34.5508" stroke="black" stroke-width="1.5" stroke-miterlimit="10" stroke-linecap="round" stroke-linejoin="round"/>
<path d="M5.84219 19.2153C4.02422 19.3449 2.59766 20.5677 2.59766 22.0569C2.59766 23.6327 4.19453 24.9102 6.16328 24.9102C6.18047 24.9102 6.19688 24.9102 6.21406 24.9094" stroke="black" stroke-width="1.5" stroke-miterlimit="10" stroke-linecap="round" stroke-linejoin="round"/>
<path d="M17.504 28.0736C15.9794 29.6386 14.1186 30.5421 12.8875 30.5421C10.7861 30.5421 6.84891 27.9096 5.88273 23.8476C5.74141 23.2567 5.66406 22.6356 5.66406 21.9875C5.66406 19.4794 6.03695 17.5952 6.66227 16.1939C7.60016 14.0921 9.10703 13.0732 10.7797 12.6578C11.4117 12.6101 12.0508 12.6539 12.6734 12.7944C15.1922 13.3613 16.9265 15.4806 17.4094 17.9638C17.8984 20.4852 16.7554 22.9012 16.8515 25.4094C16.8874 26.3573 17.1188 27.256 17.504 28.0736ZM17.504 28.0736C18.4673 30.1218 20.3968 31.6657 22.6648 32.2178C28.2977 33.589 33.1929 29.6612 36.5241 25.5296C36.7563 25.2423 36.5867 24.8136 36.2218 24.7573C36.0227 24.7261 35.8227 24.6917 35.6234 24.6605C35.2452 24.5996 35.0898 24.1459 35.3476 23.8632C38.0133 20.9295 39.2343 16.6707 38.5586 12.7616C38.4992 12.4165 38.1015 12.247 37.8156 12.4477C35.4172 14.1258 32.1851 13.5113 29.532 12.4477" stroke="black" stroke-width="1.5" stroke-miterlimit="10" stroke-linecap="round" stroke-linejoin="round"/>
<path d="M11.2344 25.572C12.338 26.0958 13.4417 26.0958 14.5455 25.572" stroke="black" stroke-width="1.5" stroke-miterlimit="10" stroke-linecap="round" stroke-linejoin="round"/>
<path d="M10.0664 20.3652V21.1836" stroke="black" stroke-width="1.5" stroke-miterlimit="10" stroke-linecap="round" stroke-linejoin="round"/>
<path d="M8.95312 18.1094C9.69547 17.6729 10.4379 17.6729 11.1803 18.1094" stroke="black" stroke-width="1.5" stroke-miterlimit="10" stroke-linecap="round" stroke-linejoin="round"/>
<path d="M6.99219 15.543C8.11961 11.9628 13.1659 8.16837 18.9048 12.1425" stroke="black" stroke-width="1.5" stroke-miterlimit="10" stroke-linecap="round" stroke-linejoin="round"/>
<path d="M15.4922 14.33C17.6949 15.5429 19.7666 18.5562 20.4399 20.7773" stroke="black" stroke-width="1.5" stroke-miterlimit="10" stroke-linecap="round" stroke-linejoin="round"/>
<path d="M30.6494 9.38776C30.3153 10.3052 27.4805 18.0898 27.1173 19.0869C26.9884 19.4407 26.4962 19.4594 26.3408 19.1166C25.5955 17.469 24.3451 13.8183 26.1587 10.805C26.7888 9.75813 27.7884 8.78805 29.3087 8.0064" stroke="black" stroke-width="1.5" stroke-miterlimit="10" stroke-linecap="round" stroke-linejoin="round"/>
<path d="M33.3352 2.00365L31.7812 6.26953" stroke="black" stroke-width="1.5" stroke-miterlimit="10" stroke-linecap="round" stroke-linejoin="round"/>
<path d="M34.1301 4.73804C35.0027 5.05546 35.9676 4.60584 36.2851 3.73369L36.6105 2.84006C36.9281 1.96791 36.4782 1.00353 35.6056 0.686111C34.7331 0.368688 33.7683 0.81839 33.4507 1.69054L33.1253 2.58417C32.8077 3.45624 33.2576 4.42062 34.1301 4.73804Z" stroke="black" stroke-width="1.5" stroke-miterlimit="10" stroke-linecap="round" stroke-linejoin="round"/>
<path d="M30.9657 6.05852C30.0376 6.05852 29.2852 6.81057 29.2852 7.73824C29.2852 8.66599 30.0376 9.41797 30.9657 9.41797C31.8938 9.41797 32.6462 8.66599 32.6462 7.73824C32.6462 6.81057 31.8938 6.05852 30.9657 6.05852Z" stroke="black" stroke-width="1.5" stroke-miterlimit="10" stroke-linecap="round" stroke-linejoin="round"/>
</g>
</g>
<defs>
<clipPath id="clip0_5193_38993">
<rect width="40" height="40" fill="white"/>
</clipPath>
</defs>
</svg>
