<svg width="18" height="20" viewBox="0 0 18 20" fill="none" xmlns="http://www.w3.org/2000/svg">
<g clip-path="url(#clip0_8213_54311)">
<path fill-rule="evenodd" clip-rule="evenodd" d="M14.7865 6.78533H1.81348C1.02016 6.78533 0.371094 6.12964 0.371094 5.32823V4.95714C0.371094 4.15576 1.0202 3.5 1.81348 3.5H14.4191C14.6215 3.5 14.7865 3.6667 14.7865 3.87109V6.78533Z" fill="#EFCA9E"/>
<path fill-rule="evenodd" clip-rule="evenodd" d="M2.17188 6.41357L3.73027 9.25719L10.0286 3.11377L7.99322 1.05761C7.85018 0.91307 7.61677 0.913107 7.47372 1.05761L2.17188 6.41357Z" fill="#9AD297"/>
<path fill-rule="evenodd" clip-rule="evenodd" d="M6.25725 10.2333L14.3291 6.48644L11.9178 2.26741C11.8166 2.09039 11.5912 2.02939 11.416 2.13159L4.07422 6.4136L6.25725 10.2333Z" fill="#A2E19F"/>
<path fill-rule="evenodd" clip-rule="evenodd" d="M1.47549 19.0536H16.5231C17.1305 19.0536 17.6275 18.5516 17.6275 17.938V7.52979C17.6275 6.91618 17.1305 6.41413 16.5231 6.41413H14.7865H1.81348C1.02016 6.41413 0.371094 5.75845 0.371094 4.95703V17.938C0.37113 18.5516 0.868114 19.0536 1.47549 19.0536Z" fill="#FED9A8"/>
<path fill-rule="evenodd" clip-rule="evenodd" d="M17.6261 10.6406V14.8259H12.7121C11.5728 14.8259 10.6406 13.8842 10.6406 12.7333C10.6406 11.5823 11.5728 10.6406 12.7121 10.6406H17.6261Z" fill="#D4B288"/>
<path d="M12.7111 13.4325C13.0931 13.4325 13.4027 13.1197 13.4027 12.7338C13.4027 12.348 13.0931 12.0352 12.7111 12.0352C12.3292 12.0352 12.0195 12.348 12.0195 12.7338C12.0195 13.1197 12.3292 13.4325 12.7111 13.4325Z" fill="#D4B288"/>
<path fill-rule="evenodd" clip-rule="evenodd" d="M13.0364 12.8091C13.0364 12.9899 12.8926 13.1369 12.7124 13.1369C12.5339 13.1369 12.3883 12.9899 12.3883 12.8091C12.3883 12.6284 12.5339 12.4815 12.7124 12.4815C12.8926 12.4816 13.0364 12.6284 13.0364 12.8091ZM11.6536 12.8091C11.6536 13.3988 12.1284 13.8792 12.7124 13.8792C13.2964 13.8792 13.7712 13.3988 13.7712 12.8091C13.7712 12.2191 13.2964 11.7394 12.7124 11.7394C12.1284 11.7394 11.6536 12.2192 11.6536 12.8091ZM16.5228 18.7578C16.93 18.7578 17.2593 18.4238 17.2593 18.0135V15.2729H12.7124C11.3677 15.2729 10.2743 14.1678 10.2743 12.8091C10.2743 11.4507 11.3677 10.3455 12.7124 10.3455H17.2593V7.60507C17.2593 7.19457 16.93 6.86058 16.5228 6.86058H14.2892H14.2875H1.81298C1.41096 6.86058 1.03843 6.72736 0.738637 6.50226V18.0135C0.738637 18.4238 1.06785 18.7578 1.47509 18.7578H16.5228ZM1.81298 3.94635H4.16962L2.01921 6.11836H1.81302C1.22041 6.11836 0.738674 5.63119 0.738674 5.03235C0.738637 4.43352 1.22034 3.94635 1.81298 3.94635ZM7.73402 1.39589L3.05887 6.11836H3.97551L9.32126 3.00058L7.73402 1.39589ZM11.5999 2.52881L13.6516 6.11836H5.44494L11.5999 2.52881ZM14.4192 3.94635H13.2582L14.4192 5.9769V3.94635ZM17.2593 14.5307V11.0876H12.7124C11.7732 11.0876 11.009 11.86 11.009 12.8091C11.009 13.7585 11.7732 14.5307 12.7124 14.5307H17.2593ZM16.5228 6.11836H15.1539V3.57525C15.1539 3.37026 14.9893 3.20416 14.7866 3.20416H12.8337L12.0522 1.83631C11.9517 1.65881 11.7264 1.59807 11.5497 1.70045L9.97973 2.61631L7.99392 0.608693C7.9246 0.539225 7.83104 0.5 7.73399 0.5C7.63521 0.5 7.54165 0.539225 7.47405 0.608693L4.90428 3.20416H1.81298C0.814898 3.20416 0.00390625 4.02428 0.00390625 5.03235V18.0135C0.00390625 18.8332 0.664102 19.5 1.47509 19.5H16.5229C17.3338 19.5 17.994 18.8332 17.994 18.0135V7.60503C17.994 6.78529 17.3338 6.11836 16.5228 6.11836Z" fill="#050505"/>
</g>
<defs>
<clipPath id="clip0_8213_54311">
<rect width="18" height="19" fill="white" transform="translate(0 0.5)"/>
</clipPath>
</defs>
</svg>
